<svg width="30" height="30" viewBox="0 0 30 30" fill="none" xmlns="http://www.w3.org/2000/svg">
<g style="mix-blend-mode:multiply">
<path d="M10.8 3.9V10.5H4.05C4.05 10.5 0 10.65 0 15C0 19.35 4.05 19.5 4.05 19.5H10.8V25.95C10.8 25.95 10.95 30 15.3 30C19.65 30 19.8 25.95 19.8 25.95V19.5H25.95C25.95 19.5 30 19.35 30 15C30 10.65 25.95 10.5 25.95 10.5H19.8V3.9C19.8 3.9 19.65 0 15.3 0C10.95 0 10.8 3.9 10.8 3.9Z" fill="url(#paint0_linear_1_227)"/>
</g>
<defs>
<linearGradient id="paint0_linear_1_227" x1="0" y1="0" x2="30" y2="30" gradientUnits="userSpaceOnUse">
<stop stop-color="#1F6EAE"/>
<stop offset="1" stop-color="#3EC1D0"/>
</linearGradient>
</defs>
</svg>
