<svg width="50" height="43" viewBox="0 0 50 43" fill="none" xmlns="http://www.w3.org/2000/svg">
<path fill-rule="evenodd" clip-rule="evenodd" d="M27.9221 13.6956C29.4431 11.9102 30.4726 9.72212 30.3006 7.27037C29.8049 0.206186 19.9713 1.76022 18.0585 5.32561C16.1457 8.891 16.373 17.9349 18.8451 18.5722C19.831 18.8263 21.9313 18.2038 24.0689 16.9154L22.7271 26.4075H30.6494L27.9221 13.6956Z" fill="#915B3C"/>
<path fill-rule="evenodd" clip-rule="evenodd" d="M28.5308 15.2859C29.5251 10.8622 32.3577 7.84682 31.9251 5.86965C31.6367 4.55153 30.868 3.73185 29.619 3.41058C28.9731 0.797344 26.8897 -0.314168 23.3689 0.076046C18.0877 0.661367 14.8644 2.85458 16.2564 7.6806C17.536 7.6806 19.0807 7.21785 21.2167 8.0107C21.8945 8.26227 22.3792 9.0424 22.671 10.3511H23.6362C24.573 8.79803 25.4968 8.22732 26.4074 8.63897C27.318 9.05062 27.525 10.0505 27.0284 11.6387L27.5038 15.2859H28.5308Z" fill="#191847"/>
<path fill-rule="evenodd" clip-rule="evenodd" d="M26.1296 20.9056L23.2752 20.416C12.6847 29.5647 8.33479 47.1405 -4.6466 56.4511L-1.52209 60.324C20.9983 57.5357 26.5801 36.0974 26.1296 20.9056Z" fill="#E87613"/>
<path fill-rule="evenodd" clip-rule="evenodd" d="M38.5723 56.7763C27.1273 56.7763 18.7086 56.7763 13.3162 56.7763C12.1622 56.7763 12.3796 55.1099 12.5465 54.269C14.4719 44.564 21.9879 34.1026 21.9879 20.2879L29.2729 19.1455C35.2986 28.8366 37.3823 40.7682 38.5723 56.7763Z" fill="#DDE3E9"/>
<path fill-rule="evenodd" clip-rule="evenodd" d="M38.3696 28.6714C39.4277 28.3673 40.2656 27.6579 40.8833 26.5434C43.5459 21.7388 42.5843 19.0935 39.7388 18.224C36.8932 17.3545 34.3555 19.1455 29.8218 19.1455C29.5752 19.1455 29.3493 19.161 29.1442 19.1919L26.8636 19.3221C20.3203 41.498 18.5157 56.2934 21.4498 63.7083H41.3283C42.5061 66.4547 43.6331 68.7653 44.7094 70.6403H50.1259C50.6357 54.1577 46.7169 40.1681 38.3696 28.6714Z" fill="#FF9B21"/>
</svg>
