<svg width="100" height="100" viewBox="0 0 100 100" fill="none" xmlns="http://www.w3.org/2000/svg">
<g style="mix-blend-mode:multiply">
<path d="M36 13V35H13.5C13.5 35 0 35.5 0 50C0 64.5 13.5 65 13.5 65H36V86.5C36 86.5 36.5 100 51 100C65.5 100 66 86.5 66 86.5V65H86.5C86.5 65 100 64.5 100 50C100 35.5 86.5 35 86.5 35H66V13C66 13 65.5 0 51 0C36.5 0 36 13 36 13Z" fill="url(#paint0_linear_1_229)"/>
</g>
<defs>
<linearGradient id="paint0_linear_1_229" x1="0" y1="0" x2="100" y2="100" gradientUnits="userSpaceOnUse">
<stop stop-color="#1F6EAE"/>
<stop offset="1" stop-color="#3EC1D0"/>
</linearGradient>
</defs>
</svg>
