<svg width="60" height="60" viewBox="0 0 60 60" fill="none" xmlns="http://www.w3.org/2000/svg">
<g style="mix-blend-mode:multiply">
<path d="M21.6 7.8V21H8.1C8.1 21 0 21.3 0 30C0 38.7 8.1 39 8.1 39H21.6V51.9C21.6 51.9 21.9 60 30.6 60C39.3 60 39.6 51.9 39.6 51.9V39H51.9C51.9 39 60 38.7 60 30C60 21.3 51.9 21 51.9 21H39.6V7.8C39.6 7.8 39.3 0 30.6 0C21.9 0 21.6 7.8 21.6 7.8Z" fill="url(#paint0_linear_1_228)"/>
</g>
<defs>
<linearGradient id="paint0_linear_1_228" x1="0" y1="0" x2="60" y2="60" gradientUnits="userSpaceOnUse">
<stop stop-color="#1F6EAE"/>
<stop offset="1" stop-color="#3EC1D0"/>
</linearGradient>
</defs>
</svg>
